<svg xmlns="http://www.w3.org/2000/svg" xmlns:xlink="http://www.w3.org/1999/xlink" xmlns:lucid="lucid" width="2240" height="2137"><g transform="translate(280 -60)" lucid:page-tab-id="0_0"><path d="M80 520h360v350H80z" stroke="#000" stroke-width="2" fill="#fff"/><path d="M80 557.6h360M80 638.3h360" stroke="#000" stroke-width="2" fill="none"/><use xlink:href="#a" transform="matrix(1,0,0,1,88,528) translate(145.55 14.6)"/><use xlink:href="#b" transform="matrix(1,0,0,1,92,565.6) translate(0 25.299999999999997)"/><use xlink:href="#c" transform="matrix(1,0,0,1,92,565.6) translate(10.95 25.299999999999997)"/><use xlink:href="#d" transform="matrix(1,0,0,1,92,565.6) translate(69.9 25.299999999999997)"/><use xlink:href="#b" transform="matrix(1,0,0,1,92,565.6) translate(0 46.9)"/><use xlink:href="#e" transform="matrix(1,0,0,1,92,565.6) translate(10.95 46.9)"/><use xlink:href="#f" transform="matrix(1,0,0,1,92,565.6) translate(63.849999999999994 46.9)"/><use xlink:href="#g" transform="matrix(1,0,0,1,92,646.3000000000001) translate(0 25.20000000000001)"/><use xlink:href="#h" transform="matrix(1,0,0,1,92,646.3000000000001) translate(15.5 25.20000000000001)"/><use xlink:href="#i" transform="matrix(1,0,0,1,92,646.3000000000001) translate(123.25000000000001 25.20000000000001)"/><use xlink:href="#g" transform="matrix(1,0,0,1,92,646.3000000000001) translate(0 46.80000000000001)"/><use xlink:href="#j" transform="matrix(1,0,0,1,92,646.3000000000001) translate(15.5 46.80000000000001)"/><use xlink:href="#k" transform="matrix(1,0,0,1,92,646.3000000000001) translate(73.4 46.80000000000001)"/><use xlink:href="#g" transform="matrix(1,0,0,1,92,646.3000000000001) translate(0 68.40000000000002)"/><use xlink:href="#l" transform="matrix(1,0,0,1,92,646.3000000000001) translate(15.5 68.40000000000002)"/><use xlink:href="#d" transform="matrix(1,0,0,1,92,646.3000000000001) translate(77.4 68.40000000000002)"/><use xlink:href="#g" transform="matrix(1,0,0,1,92,646.3000000000001) translate(0 90.00000000000003)"/><use xlink:href="#m" transform="matrix(1,0,0,1,92,646.3000000000001) translate(15.5 90.00000000000003)"/><use xlink:href="#d" transform="matrix(1,0,0,1,92,646.3000000000001) translate(120.10000000000001 90.00000000000003)"/><use xlink:href="#g" transform="matrix(1,0,0,1,92,646.3000000000001) translate(0 111.60000000000002)"/><use xlink:href="#n" transform="matrix(1,0,0,1,92,646.3000000000001) translate(15.5 111.60000000000002)"/><use xlink:href="#d" transform="matrix(1,0,0,1,92,646.3000000000001) translate(137.05 111.60000000000002)"/><use xlink:href="#g" transform="matrix(1,0,0,1,92,646.3000000000001) translate(0 133.20000000000002)"/><use xlink:href="#o" transform="matrix(1,0,0,1,92,646.3000000000001) translate(15.5 133.20000000000002)"/><use xlink:href="#p" transform="matrix(1,0,0,1,92,646.3000000000001) translate(133.35000000000002 133.20000000000002)"/><use xlink:href="#q" transform="matrix(1,0,0,1,92,646.3000000000001) translate(183.20000000000002 133.20000000000002)"/><use xlink:href="#g" transform="matrix(1,0,0,1,92,646.3000000000001) translate(0 154.8)"/><use xlink:href="#r" transform="matrix(1,0,0,1,92,646.3000000000001) translate(15.5 154.8)"/><use xlink:href="#p" transform="matrix(1,0,0,1,92,646.3000000000001) translate(168.25 154.8)"/><use xlink:href="#q" transform="matrix(1,0,0,1,92,646.3000000000001) translate(218.1 154.8)"/><use xlink:href="#g" transform="matrix(1,0,0,1,92,646.3000000000001) translate(0 176.4)"/><use xlink:href="#s" transform="matrix(1,0,0,1,92,646.3000000000001) translate(15.5 176.4)"/><use xlink:href="#q" transform="matrix(1,0,0,1,92,646.3000000000001) translate(76.30000000000001 176.4)"/><use xlink:href="#g" transform="matrix(1,0,0,1,92,646.3000000000001) translate(0 198)"/><use xlink:href="#t" transform="matrix(1,0,0,1,92,646.3000000000001) translate(15.5 198)"/><use xlink:href="#u" transform="matrix(1,0,0,1,92,646.3000000000001) translate(160.3 198)"/><use xlink:href="#v" transform="matrix(1,0,0,1,92,646.3000000000001) translate(225.15000000000003 198)"/><path d="M530 80h360v329H530z" stroke="#000" stroke-width="2" fill="#fff"/><path d="M530 139.2h360m-360 59.1h360" stroke="#000" stroke-width="2" fill="none"/><use xlink:href="#w" transform="matrix(1,0,0,1,538,88) translate(116.55 14.799999999999999)"/><use xlink:href="#x" transform="matrix(1,0,0,1,538,88) translate(130.075 36.4)"/><use xlink:href="#g" transform="matrix(1,0,0,1,542,206.29999999999998) translate(0 25.500000000000007)"/><use xlink:href="#j" transform="matrix(1,0,0,1,542,206.29999999999998) translate(15.5 25.500000000000007)"/><use xlink:href="#k" transform="matrix(1,0,0,1,542,206.29999999999998) translate(73.4 25.500000000000007)"/><use xlink:href="#g" transform="matrix(1,0,0,1,542,206.29999999999998) translate(0 47.10000000000001)"/><use xlink:href="#l" transform="matrix(1,0,0,1,542,206.29999999999998) translate(15.5 47.10000000000001)"/><use xlink:href="#d" transform="matrix(1,0,0,1,542,206.29999999999998) translate(77.4 47.10000000000001)"/><use xlink:href="#g" transform="matrix(1,0,0,1,542,206.29999999999998) translate(0 68.70000000000002)"/><use xlink:href="#m" transform="matrix(1,0,0,1,542,206.29999999999998) translate(15.5 68.70000000000002)"/><use xlink:href="#d" transform="matrix(1,0,0,1,542,206.29999999999998) translate(120.10000000000001 68.70000000000002)"/><use xlink:href="#g" transform="matrix(1,0,0,1,542,206.29999999999998) translate(0 90.30000000000003)"/><use xlink:href="#n" transform="matrix(1,0,0,1,542,206.29999999999998) translate(15.5 90.30000000000003)"/><use xlink:href="#d" transform="matrix(1,0,0,1,542,206.29999999999998) translate(137.05 90.30000000000003)"/><use xlink:href="#g" transform="matrix(1,0,0,1,542,206.29999999999998) translate(0 111.90000000000002)"/><use xlink:href="#o" transform="matrix(1,0,0,1,542,206.29999999999998) translate(15.5 111.90000000000002)"/><use xlink:href="#p" transform="matrix(1,0,0,1,542,206.29999999999998) translate(133.35000000000002 111.90000000000002)"/><use xlink:href="#q" transform="matrix(1,0,0,1,542,206.29999999999998) translate(183.20000000000002 111.90000000000002)"/><use xlink:href="#g" transform="matrix(1,0,0,1,542,206.29999999999998) translate(0 133.5)"/><use xlink:href="#y" transform="matrix(1,0,0,1,542,206.29999999999998) translate(15.5 133.5)"/><use xlink:href="#p" transform="matrix(1,0,0,1,542,206.29999999999998) translate(164.25 133.5)"/><use xlink:href="#q" transform="matrix(1,0,0,1,542,206.29999999999998) translate(214.1 133.5)"/><use xlink:href="#g" transform="matrix(1,0,0,1,542,206.29999999999998) translate(0 155.1)"/><use xlink:href="#s" transform="matrix(1,0,0,1,542,206.29999999999998) translate(15.5 155.1)"/><use xlink:href="#q" transform="matrix(1,0,0,1,542,206.29999999999998) translate(76.30000000000001 155.1)"/><use xlink:href="#g" transform="matrix(1,0,0,1,542,206.29999999999998) translate(0 176.70000000000002)"/><use xlink:href="#t" transform="matrix(1,0,0,1,542,206.29999999999998) translate(15.5 176.70000000000002)"/><use xlink:href="#u" transform="matrix(1,0,0,1,542,206.29999999999998) translate(160.3 176.70000000000002)"/><use xlink:href="#v" transform="matrix(1,0,0,1,542,206.29999999999998) translate(225.15000000000003 176.70000000000002)"/><path d="M260 518v-53.5h450v-30.02" stroke="#000" stroke-width="2" fill="none"/><path d="M261 519h-2v-1.03h2z"/><path d="M710 411.96l12.73 21.52h-25.46zM530 520h360v350H530z" stroke="#000" stroke-width="2" fill="#fff"/><path d="M530 557.6h360m-360 80.7h360" stroke="#000" stroke-width="2" fill="none"/><use xlink:href="#z" transform="matrix(1,0,0,1,538,528) translate(148.575 14.6)"/><use xlink:href="#b" transform="matrix(1,0,0,1,542,565.6) translate(0 25.299999999999997)"/><use xlink:href="#c" transform="matrix(1,0,0,1,542,565.6) translate(10.95 25.299999999999997)"/><use xlink:href="#d" transform="matrix(1,0,0,1,542,565.6) translate(69.9 25.299999999999997)"/><use xlink:href="#b" transform="matrix(1,0,0,1,542,565.6) translate(0 46.9)"/><use xlink:href="#e" transform="matrix(1,0,0,1,542,565.6) translate(10.95 46.9)"/><use xlink:href="#f" transform="matrix(1,0,0,1,542,565.6) translate(63.849999999999994 46.9)"/><use xlink:href="#g" transform="matrix(1,0,0,1,542,646.3000000000001) translate(0 25.20000000000001)"/><use xlink:href="#h" transform="matrix(1,0,0,1,542,646.3000000000001) translate(15.5 25.20000000000001)"/><use xlink:href="#i" transform="matrix(1,0,0,1,542,646.3000000000001) translate(123.25000000000001 25.20000000000001)"/><use xlink:href="#g" transform="matrix(1,0,0,1,542,646.3000000000001) translate(0 46.80000000000001)"/><use xlink:href="#j" transform="matrix(1,0,0,1,542,646.3000000000001) translate(15.5 46.80000000000001)"/><use xlink:href="#k" transform="matrix(1,0,0,1,542,646.3000000000001) translate(73.4 46.80000000000001)"/><use xlink:href="#g" transform="matrix(1,0,0,1,542,646.3000000000001) translate(0 68.40000000000002)"/><use xlink:href="#l" transform="matrix(1,0,0,1,542,646.3000000000001) translate(15.5 68.40000000000002)"/><use xlink:href="#d" transform="matrix(1,0,0,1,542,646.3000000000001) translate(77.4 68.40000000000002)"/><use xlink:href="#g" transform="matrix(1,0,0,1,542,646.3000000000001) translate(0 90.00000000000003)"/><use xlink:href="#m" transform="matrix(1,0,0,1,542,646.3000000000001) translate(15.5 90.00000000000003)"/><use xlink:href="#d" transform="matrix(1,0,0,1,542,646.3000000000001) translate(120.10000000000001 90.00000000000003)"/><use xlink:href="#g" transform="matrix(1,0,0,1,542,646.3000000000001) translate(0 111.60000000000002)"/><use xlink:href="#n" transform="matrix(1,0,0,1,542,646.3000000000001) translate(15.5 111.60000000000002)"/><use xlink:href="#d" transform="matrix(1,0,0,1,542,646.3000000000001) translate(137.05 111.60000000000002)"/><use xlink:href="#g" transform="matrix(1,0,0,1,542,646.3000000000001) translate(0 133.20000000000002)"/><use xlink:href="#o" transform="matrix(1,0,0,1,542,646.3000000000001) translate(15.5 133.20000000000002)"/><use xlink:href="#p" transform="matrix(1,0,0,1,542,646.3000000000001) translate(133.35000000000002 133.20000000000002)"/><use xlink:href="#q" transform="matrix(1,0,0,1,542,646.3000000000001) translate(183.20000000000002 133.20000000000002)"/><use xlink:href="#g" transform="matrix(1,0,0,1,542,646.3000000000001) translate(0 154.8)"/><use xlink:href="#r" transform="matrix(1,0,0,1,542,646.3000000000001) translate(15.5 154.8)"/><use xlink:href="#p" transform="matrix(1,0,0,1,542,646.3000000000001) translate(168.25 154.8)"/><use xlink:href="#q" transform="matrix(1,0,0,1,542,646.3000000000001) translate(218.1 154.8)"/><use xlink:href="#g" transform="matrix(1,0,0,1,542,646.3000000000001) translate(0 176.4)"/><use xlink:href="#s" transform="matrix(1,0,0,1,542,646.3000000000001) translate(15.5 176.4)"/><use xlink:href="#q" transform="matrix(1,0,0,1,542,646.3000000000001) translate(76.30000000000001 176.4)"/><use xlink:href="#g" transform="matrix(1,0,0,1,542,646.3000000000001) translate(0 198)"/><use xlink:href="#t" transform="matrix(1,0,0,1,542,646.3000000000001) translate(15.5 198)"/><use xlink:href="#u" transform="matrix(1,0,0,1,542,646.3000000000001) translate(160.3 198)"/><use xlink:href="#v" transform="matrix(1,0,0,1,542,646.3000000000001) translate(225.15000000000003 198)"/><path d="M980 520h360v350H980z" stroke="#000" stroke-width="2" fill="#fff"/><path d="M980 557.6h360m-360 80.7h360" stroke="#000" stroke-width="2" fill="none"/><use xlink:href="#A" transform="matrix(1,0,0,1,988,528) translate(146.525 14.6)"/><use xlink:href="#b" transform="matrix(1,0,0,1,992,565.6) translate(0 25.299999999999997)"/><use xlink:href="#c" transform="matrix(1,0,0,1,992,565.6) translate(10.95 25.299999999999997)"/><use xlink:href="#d" transform="matrix(1,0,0,1,992,565.6) translate(69.9 25.299999999999997)"/><use xlink:href="#b" transform="matrix(1,0,0,1,992,565.6) translate(0 46.9)"/><use xlink:href="#e" transform="matrix(1,0,0,1,992,565.6) translate(10.95 46.9)"/><use xlink:href="#f" transform="matrix(1,0,0,1,992,565.6) translate(63.849999999999994 46.9)"/><use xlink:href="#g" transform="matrix(1,0,0,1,992,646.3000000000001) translate(0 25.20000000000001)"/><use xlink:href="#h" transform="matrix(1,0,0,1,992,646.3000000000001) translate(15.5 25.20000000000001)"/><use xlink:href="#i" transform="matrix(1,0,0,1,992,646.3000000000001) translate(123.25000000000001 25.20000000000001)"/><use xlink:href="#g" transform="matrix(1,0,0,1,992,646.3000000000001) translate(0 46.80000000000001)"/><use xlink:href="#j" transform="matrix(1,0,0,1,992,646.3000000000001) translate(15.5 46.80000000000001)"/><use xlink:href="#k" transform="matrix(1,0,0,1,992,646.3000000000001) translate(73.4 46.80000000000001)"/><use xlink:href="#g" transform="matrix(1,0,0,1,992,646.3000000000001) translate(0 68.40000000000002)"/><use xlink:href="#l" transform="matrix(1,0,0,1,992,646.3000000000001) translate(15.5 68.40000000000002)"/><use xlink:href="#d" transform="matrix(1,0,0,1,992,646.3000000000001) translate(77.4 68.40000000000002)"/><use xlink:href="#g" transform="matrix(1,0,0,1,992,646.3000000000001) translate(0 90.00000000000003)"/><use xlink:href="#m" transform="matrix(1,0,0,1,992,646.3000000000001) translate(15.5 90.00000000000003)"/><use xlink:href="#d" transform="matrix(1,0,0,1,992,646.3000000000001) translate(120.10000000000001 90.00000000000003)"/><use xlink:href="#g" transform="matrix(1,0,0,1,992,646.3000000000001) translate(0 111.60000000000002)"/><use xlink:href="#n" transform="matrix(1,0,0,1,992,646.3000000000001) translate(15.5 111.60000000000002)"/><use xlink:href="#d" transform="matrix(1,0,0,1,992,646.3000000000001) translate(137.05 111.60000000000002)"/><use xlink:href="#g" transform="matrix(1,0,0,1,992,646.3000000000001) translate(0 133.20000000000002)"/><use xlink:href="#o" transform="matrix(1,0,0,1,992,646.3000000000001) translate(15.5 133.20000000000002)"/><use xlink:href="#p" transform="matrix(1,0,0,1,992,646.3000000000001) translate(133.35000000000002 133.20000000000002)"/><use xlink:href="#q" transform="matrix(1,0,0,1,992,646.3000000000001) translate(183.20000000000002 133.20000000000002)"/><use xlink:href="#g" transform="matrix(1,0,0,1,992,646.3000000000001) translate(0 154.8)"/><use xlink:href="#r" transform="matrix(1,0,0,1,992,646.3000000000001) translate(15.5 154.8)"/><use xlink:href="#p" transform="matrix(1,0,0,1,992,646.3000000000001) translate(168.25 154.8)"/><use xlink:href="#q" transform="matrix(1,0,0,1,992,646.3000000000001) translate(218.1 154.8)"/><use xlink:href="#g" transform="matrix(1,0,0,1,992,646.3000000000001) translate(0 176.4)"/><use xlink:href="#s" transform="matrix(1,0,0,1,992,646.3000000000001) translate(15.5 176.4)"/><use xlink:href="#q" transform="matrix(1,0,0,1,992,646.3000000000001) translate(76.30000000000001 176.4)"/><use xlink:href="#g" transform="matrix(1,0,0,1,992,646.3000000000001) translate(0 198)"/><use xlink:href="#t" transform="matrix(1,0,0,1,992,646.3000000000001) translate(15.5 198)"/><use xlink:href="#u" transform="matrix(1,0,0,1,992,646.3000000000001) translate(160.3 198)"/><use xlink:href="#v" transform="matrix(1,0,0,1,992,646.3000000000001) translate(225.15000000000003 198)"/><path d="M1160 518v-53.5H710v-30.02" stroke="#000" stroke-width="2" fill="none"/><path d="M1161 519h-2v-1.03h2z"/><path d="M710 411.96l12.73 21.52h-25.46z" stroke="#000" stroke-width="2" fill="#fff"/><path d="M710 518v-83.52" stroke="#000" stroke-width="2" fill="none"/><path d="M711 519h-2v-1.03h2z"/><path d="M710 411.96l12.73 21.52h-25.46zM1440 123.5h360v242h-360z" stroke="#000" stroke-width="2" fill="#fff"/><path d="M1440 182.7h360m-360 59.1h360" stroke="#000" stroke-width="2" fill="none"/><g><use xlink:href="#w" transform="matrix(1,0,0,1,1448,131.49999999999983) translate(116.55 14.799999999999999)"/><use xlink:href="#B" transform="matrix(1,0,0,1,1448,131.49999999999983) translate(106.125 36.4)"/></g><g><use xlink:href="#g" transform="matrix(1,0,0,1,1452,249.7999999999998) translate(0 25.19999999999999)"/><use xlink:href="#C" transform="matrix(1,0,0,1,1452,249.7999999999998) translate(15.5 25.19999999999999)"/><use xlink:href="#D" transform="matrix(1,0,0,1,1452,249.7999999999998) translate(143.25 25.19999999999999)"/><use xlink:href="#q" transform="matrix(1,0,0,1,1452,249.7999999999998) translate(196.10000000000002 25.19999999999999)"/><use xlink:href="#g" transform="matrix(1,0,0,1,1452,249.7999999999998) translate(0 46.79999999999999)"/><use xlink:href="#E" transform="matrix(1,0,0,1,1452,249.7999999999998) translate(15.5 46.79999999999999)"/><use xlink:href="#D" transform="matrix(1,0,0,1,1452,249.7999999999998) translate(178.14999999999998 46.79999999999999)"/><use xlink:href="#q" transform="matrix(1,0,0,1,1452,249.7999999999998) translate(231 46.79999999999999)"/><use xlink:href="#g" transform="matrix(1,0,0,1,1452,249.7999999999998) translate(0 68.39999999999999)"/><use xlink:href="#F" transform="matrix(1,0,0,1,1452,249.7999999999998) translate(15.5 68.39999999999999)"/><use xlink:href="#p" transform="matrix(1,0,0,1,1452,249.7999999999998) translate(195.2 68.39999999999999)"/><use xlink:href="#q" transform="matrix(1,0,0,1,1452,249.7999999999998) translate(245.04999999999998 68.39999999999999)"/><use xlink:href="#g" transform="matrix(1,0,0,1,1452,249.7999999999998) translate(0 90)"/><use xlink:href="#G" transform="matrix(1,0,0,1,1452,249.7999999999998) translate(15.5 90)"/><use xlink:href="#p" transform="matrix(1,0,0,1,1452,249.7999999999998) translate(230.09999999999997 90)"/><use xlink:href="#v" transform="matrix(1,0,0,1,1452,249.7999999999998) translate(279.95 90)"/></g><path d="M1438 244.5H915.48" stroke="#000" stroke-width="2" fill="none"/><path d="M1439 245.5h-1.03v-2h1.03z"/><path d="M892.96 244.5l21.52-12.73v25.46zM1440 520h360v415h-360z" stroke="#000" stroke-width="2" fill="#fff"/><path d="M1440 557.6h360m-360 102.3h360" stroke="#000" stroke-width="2" fill="none"/><g><use xlink:href="#H" transform="matrix(1,0,0,1,1448,528) translate(144.075 14.6)"/></g><g><use xlink:href="#b" transform="matrix(1,0,0,1,1452,565.6) translate(0 25.5)"/><use xlink:href="#c" transform="matrix(1,0,0,1,1452,565.6) translate(10.95 25.5)"/><use xlink:href="#d" transform="matrix(1,0,0,1,1452,565.6) translate(69.9 25.5)"/><use xlink:href="#b" transform="matrix(1,0,0,1,1452,565.6) translate(0 47.1)"/><use xlink:href="#e" transform="matrix(1,0,0,1,1452,565.6) translate(10.95 47.1)"/><use xlink:href="#d" transform="matrix(1,0,0,1,1452,565.6) translate(63.849999999999994 47.1)"/><use xlink:href="#b" transform="matrix(1,0,0,1,1452,565.6) translate(0 68.7)"/><use xlink:href="#I" transform="matrix(1,0,0,1,1452,565.6) translate(10.95 68.7)"/></g><g><use xlink:href="#g" transform="matrix(1,0,0,1,1452,667.9) translate(0 25.600000000000016)"/><use xlink:href="#h" transform="matrix(1,0,0,1,1452,667.9) translate(15.5 25.600000000000016)"/><use xlink:href="#i" transform="matrix(1,0,0,1,1452,667.9) translate(123.25000000000001 25.600000000000016)"/><use xlink:href="#g" transform="matrix(1,0,0,1,1452,667.9) translate(0 47.20000000000002)"/><use xlink:href="#j" transform="matrix(1,0,0,1,1452,667.9) translate(15.5 47.20000000000002)"/><use xlink:href="#k" transform="matrix(1,0,0,1,1452,667.9) translate(73.4 47.20000000000002)"/><use xlink:href="#g" transform="matrix(1,0,0,1,1452,667.9) translate(0 68.80000000000003)"/><use xlink:href="#l" transform="matrix(1,0,0,1,1452,667.9) translate(15.5 68.80000000000003)"/><use xlink:href="#d" transform="matrix(1,0,0,1,1452,667.9) translate(77.4 68.80000000000003)"/><use xlink:href="#g" transform="matrix(1,0,0,1,1452,667.9) translate(0 90.40000000000003)"/><use xlink:href="#m" transform="matrix(1,0,0,1,1452,667.9) translate(15.5 90.40000000000003)"/><use xlink:href="#d" transform="matrix(1,0,0,1,1452,667.9) translate(120.10000000000001 90.40000000000003)"/><use xlink:href="#g" transform="matrix(1,0,0,1,1452,667.9) translate(0 112.00000000000003)"/><use xlink:href="#n" transform="matrix(1,0,0,1,1452,667.9) translate(15.5 112.00000000000003)"/><use xlink:href="#d" transform="matrix(1,0,0,1,1452,667.9) translate(137.05 112.00000000000003)"/><use xlink:href="#g" transform="matrix(1,0,0,1,1452,667.9) translate(0 133.60000000000002)"/><use xlink:href="#o" transform="matrix(1,0,0,1,1452,667.9) translate(15.5 133.60000000000002)"/><use xlink:href="#p" transform="matrix(1,0,0,1,1452,667.9) translate(133.35000000000002 133.60000000000002)"/><use xlink:href="#q" transform="matrix(1,0,0,1,1452,667.9) translate(183.20000000000002 133.60000000000002)"/><use xlink:href="#g" transform="matrix(1,0,0,1,1452,667.9) translate(0 155.20000000000002)"/><use xlink:href="#F" transform="matrix(1,0,0,1,1452,667.9) translate(15.5 155.20000000000002)"/><use xlink:href="#p" transform="matrix(1,0,0,1,1452,667.9) translate(195.2 155.20000000000002)"/><use xlink:href="#q" transform="matrix(1,0,0,1,1452,667.9) translate(245.04999999999998 155.20000000000002)"/><use xlink:href="#g" transform="matrix(1,0,0,1,1452,667.9) translate(0 176.8)"/><use xlink:href="#G" transform="matrix(1,0,0,1,1452,667.9) translate(15.5 176.8)"/><use xlink:href="#p" transform="matrix(1,0,0,1,1452,667.9) translate(230.09999999999997 176.8)"/><use xlink:href="#q" transform="matrix(1,0,0,1,1452,667.9) translate(279.95 176.8)"/><use xlink:href="#g" transform="matrix(1,0,0,1,1452,667.9) translate(0 198.4)"/><use xlink:href="#r" transform="matrix(1,0,0,1,1452,667.9) translate(15.5 198.4)"/><use xlink:href="#p" transform="matrix(1,0,0,1,1452,667.9) translate(168.25 198.4)"/><use xlink:href="#q" transform="matrix(1,0,0,1,1452,667.9) translate(218.1 198.4)"/><use xlink:href="#g" transform="matrix(1,0,0,1,1452,667.9) translate(0 220)"/><use xlink:href="#s" transform="matrix(1,0,0,1,1452,667.9) translate(15.5 220)"/><use xlink:href="#q" transform="matrix(1,0,0,1,1452,667.9) translate(76.30000000000001 220)"/><use xlink:href="#g" transform="matrix(1,0,0,1,1452,667.9) translate(0 241.6)"/><use xlink:href="#t" transform="matrix(1,0,0,1,1452,667.9) translate(15.5 241.6)"/><use xlink:href="#u" transform="matrix(1,0,0,1,1452,667.9) translate(160.3 241.6)"/><use xlink:href="#v" transform="matrix(1,0,0,1,1452,667.9) translate(225.15000000000003 241.6)"/></g><path d="M1620 518V390.98" stroke="#000" stroke-width="2" fill="none"/><path d="M1621 519h-2v-1.03h2z"/><path d="M1620 368.46l12.73 21.52h-25.46zM460 1090.5h360v177H460z" stroke="#000" stroke-width="2" fill="#fff"/><path d="M460 1149.7h360m-360 59.1h360" stroke="#000" stroke-width="2" fill="none"/><g><use xlink:href="#w" transform="matrix(1,0,0,1,468,1098.5) translate(116.55 14.799999999999999)"/><use xlink:href="#J" transform="matrix(1,0,0,1,468,1098.5) translate(152.025 36.4)"/></g><path d="M1340 1090.5h360v177h-360z" stroke="#000" stroke-width="2" fill="#fff"/><path d="M1340 1149.7h360m-360 59.1h360" stroke="#000" stroke-width="2" fill="none"/><g><use xlink:href="#w" transform="matrix(1,0,0,1,1348,1098.5) translate(116.55 14.799999999999999)"/><use xlink:href="#K" transform="matrix(1,0,0,1,1348,1098.5) translate(121.1 36.4)"/></g><path d="M240 1380h360v177H240z" stroke="#000" stroke-width="2" fill="#fff"/><path d="M240 1439.2h360m-360 59.1h360" stroke="#000" stroke-width="2" fill="none"/><g><use xlink:href="#w" transform="matrix(1,0,0,1,248,1388) translate(116.55 14.799999999999999)"/><use xlink:href="#L" transform="matrix(1,0,0,1,248,1388) translate(127.025 36.4)"/></g><g><use xlink:href="#g" transform="matrix(1,0,0,1,252,1506.3) translate(0 25.6)"/><use xlink:href="#m" transform="matrix(1,0,0,1,252,1506.3) translate(15.5 25.6)"/><use xlink:href="#f" transform="matrix(1,0,0,1,252,1506.3) translate(120.10000000000001 25.6)"/></g><path d="M700 1380h360v177H700z" stroke="#000" stroke-width="2" fill="#fff"/><path d="M700 1439.2h360m-360 59.1h360" stroke="#000" stroke-width="2" fill="none"/><g><use xlink:href="#w" transform="matrix(1,0,0,1,708,1388) translate(116.55 14.799999999999999)"/><use xlink:href="#M" transform="matrix(1,0,0,1,708,1388) translate(118.55 36.4)"/></g><g><use xlink:href="#g" transform="matrix(1,0,0,1,712,1506.3) translate(0 25.6)"/><use xlink:href="#n" transform="matrix(1,0,0,1,712,1506.3) translate(15.5 25.6)"/><use xlink:href="#f" transform="matrix(1,0,0,1,712,1506.3) translate(137.05 25.6)"/></g><path d="M1120 1380h360v177h-360z" stroke="#000" stroke-width="2" fill="#fff"/><path d="M1120 1439.2h360m-360 59.1h360" stroke="#000" stroke-width="2" fill="none"/><g><use xlink:href="#w" transform="matrix(1,0,0,1,1128,1388) translate(116.55 14.799999999999999)"/><use xlink:href="#N" transform="matrix(1,0,0,1,1128,1388) translate(96.1 36.4)"/></g><g><use xlink:href="#g" transform="matrix(1,0,0,1,1132,1506.3) translate(0 25.6)"/><use xlink:href="#m" transform="matrix(1,0,0,1,1132,1506.3) translate(15.5 25.6)"/><use xlink:href="#f" transform="matrix(1,0,0,1,1132,1506.3) translate(120.10000000000001 25.6)"/></g><path d="M1580 1380h360v177h-360z" stroke="#000" stroke-width="2" fill="#fff"/><path d="M1580 1439.2h360m-360 59.1h360" stroke="#000" stroke-width="2" fill="none"/><g><use xlink:href="#w" transform="matrix(1,0,0,1,1588,1388) translate(116.55 14.799999999999999)"/><use xlink:href="#O" transform="matrix(1,0,0,1,1588,1388) translate(87.625 36.4)"/></g><g><use xlink:href="#g" transform="matrix(1,0,0,1,1592,1506.3) translate(0 25.6)"/><use xlink:href="#n" transform="matrix(1,0,0,1,1592,1506.3) translate(15.5 25.6)"/><use xlink:href="#f" transform="matrix(1,0,0,1,1592,1506.3) translate(137.05 25.6)"/></g><path d="M420 1378v-54.25h220v-30.77" stroke="#000" stroke-width="2" fill="none"/><path d="M421 1379h-2v-1.03h2z"/><path d="M640 1270.46l12.73 21.52h-25.46z" stroke="#000" stroke-width="2" fill="#fff"/><path d="M880 1378v-54.25H640v-30.77" stroke="#000" stroke-width="2" fill="none"/><path d="M881 1379h-2v-1.03h2z"/><path d="M640 1270.46l12.73 21.52h-25.46z" stroke="#000" stroke-width="2" fill="#fff"/><path d="M1300 1378v-54.25h220v-30.77" stroke="#000" stroke-width="2" fill="none"/><path d="M1301 1379h-2v-1.03h2z"/><path d="M1520 1270.46l12.73 21.52h-25.46z" stroke="#000" stroke-width="2" fill="#fff"/><path d="M1760 1378v-54.25h-240v-30.77" stroke="#000" stroke-width="2" fill="none"/><path d="M1761 1379h-2v-1.03h2z"/><path d="M1520 1270.46l12.73 21.52h-25.46z" stroke="#000" stroke-width="2" fill="#fff"/><path d="M1620 966.75v121.75" stroke="#000" stroke-width="2" fill="none"/><path d="M1620 937.4l14.85 14.86L1620 967.4l-14.85-15.14z" stroke="#000" stroke-width="2" fill="#fff"/><path d="M1621 1089.5h-2v-1.03h2z"/><path d="M260 901.75v78.5h380v108.25" stroke="#000" stroke-width="2" fill="none"/><path d="M260 872.4l14.85 14.86L260 902.4l-14.85-15.14z" stroke="#000" stroke-width="2" fill="#fff"/><path d="M641 1089.5h-2v-1.03h2z"/><path d="M678.72 901.75v186.75" stroke="#000" stroke-width="2" fill="none"/><path d="M678.72 872.4l14.85 14.86-14.85 15.15-14.85-15.14z" stroke="#000" stroke-width="2" fill="#fff"/><path d="M679.72 1089.5h-2v-1.03h2z"/><path d="M1160 901.75v78.5H732.8v108.25" stroke="#000" stroke-width="2" fill="none"/><path d="M1160 872.4l14.85 14.86L1160 902.4l-14.85-15.14z" stroke="#000" stroke-width="2" fill="#fff"/><path d="M733.8 1089.5h-2v-1.03h2z"/><path d="M-260 1680h360v156h-360z" stroke="#000" stroke-width="2" fill="#fff"/><path d="M-260 1717.6h360m-360 59.1h360" stroke="#000" stroke-width="2" fill="none"/><g><use xlink:href="#P" transform="matrix(1,0,0,1,-252,1688) translate(156.5 14.6)"/></g><g><use xlink:href="#g" transform="matrix(1,0,0,1,-248,1784.6999999999998) translate(0 25.6)"/><use xlink:href="#m" transform="matrix(1,0,0,1,-248,1784.6999999999998) translate(15.5 25.6)"/><use xlink:href="#f" transform="matrix(1,0,0,1,-248,1784.6999999999998) translate(120.10000000000001 25.6)"/></g><path d="M160 1680h360v156H160z" stroke="#000" stroke-width="2" fill="#fff"/><path d="M160 1717.6h360m-360 59.1h360" stroke="#000" stroke-width="2" fill="none"/><g><use xlink:href="#P" transform="matrix(1,0,0,1,168,1688) translate(156.5 14.6)"/></g><g><use xlink:href="#g" transform="matrix(1,0,0,1,172,1784.6999999999998) translate(0 25.6)"/><use xlink:href="#m" transform="matrix(1,0,0,1,172,1784.6999999999998) translate(15.5 25.6)"/><use xlink:href="#f" transform="matrix(1,0,0,1,172,1784.6999999999998) translate(120.10000000000001 25.6)"/></g><path d="M560 1680h360v177H560z" stroke="#000" stroke-width="2" fill="#fff"/><path d="M560 1717.6h360m-360 59.1h360" stroke="#000" stroke-width="2" fill="none"/><g><use xlink:href="#Q" transform="matrix(1,0,0,1,568,1688) translate(153.675 14.6)"/></g><g><use xlink:href="#g" transform="matrix(1,0,0,1,572,1784.6999999999998) translate(0 25.299999999999997)"/><use xlink:href="#m" transform="matrix(1,0,0,1,572,1784.6999999999998) translate(15.5 25.299999999999997)"/><use xlink:href="#d" transform="matrix(1,0,0,1,572,1784.6999999999998) translate(120.10000000000001 25.299999999999997)"/><use xlink:href="#g" transform="matrix(1,0,0,1,572,1784.6999999999998) translate(0 46.9)"/><use xlink:href="#n" transform="matrix(1,0,0,1,572,1784.6999999999998) translate(15.5 46.9)"/><use xlink:href="#f" transform="matrix(1,0,0,1,572,1784.6999999999998) translate(137.05 46.9)"/></g><path d="M713.74 1678v-59.5H420v-36.02" stroke="#000" stroke-width="2" fill="none"/><path d="M714.74 1679h-2v-1.03h2z"/><path d="M420 1559.96l12.73 21.52h-25.46z" stroke="#000" stroke-width="2" fill="#fff"/><path d="M758.97 1678v-59.5H880v-36.02" stroke="#000" stroke-width="2" fill="none"/><path d="M759.97 1679h-2v-1.03h2z"/><path d="M880 1559.96l12.73 21.52h-25.46z" stroke="#000" stroke-width="2" fill="#fff"/><path d="M340 1678v-59.5h80v-36.02" stroke="#000" stroke-width="2" fill="none"/><path d="M341 1679h-2v-1.03h2z"/><path d="M420 1559.96l12.73 21.52h-25.46z" stroke="#000" stroke-width="2" fill="#fff"/><path d="M-80 1678v-59.5h500v-36.02" stroke="#000" stroke-width="2" fill="none"/><path d="M-79 1679h-2v-1.03h2z"/><path d="M420 1559.96l12.73 21.52h-25.46zM1340 1680h360v221h-360z" stroke="#000" stroke-width="2" fill="#fff"/><path d="M1340 1717.6h360m-360 59.1h360" stroke="#000" stroke-width="2" fill="none"/><g><use xlink:href="#R" transform="matrix(1,0,0,1,1348,1688) translate(127.05 14.6)"/></g><g><use xlink:href="#b" transform="matrix(1,0,0,1,1352,1725.6) translate(0 25.6)"/><use xlink:href="#S" transform="matrix(1,0,0,1,1352,1725.6) translate(10.95 25.6)"/><use xlink:href="#T" transform="matrix(1,0,0,1,1352,1725.6) translate(66.85000000000001 25.6)"/></g><g><use xlink:href="#g" transform="matrix(1,0,0,1,1352,1784.6999999999998) translate(0 25.19999999999999)"/><use xlink:href="#m" transform="matrix(1,0,0,1,1352,1784.6999999999998) translate(15.5 25.19999999999999)"/><use xlink:href="#d" transform="matrix(1,0,0,1,1352,1784.6999999999998) translate(120.10000000000001 25.19999999999999)"/><use xlink:href="#g" transform="matrix(1,0,0,1,1352,1784.6999999999998) translate(0 46.79999999999999)"/><use xlink:href="#n" transform="matrix(1,0,0,1,1352,1784.6999999999998) translate(15.5 46.79999999999999)"/><use xlink:href="#d" transform="matrix(1,0,0,1,1352,1784.6999999999998) translate(137.05 46.79999999999999)"/><use xlink:href="#g" transform="matrix(1,0,0,1,1352,1784.6999999999998) translate(0 68.39999999999999)"/><use xlink:href="#C" transform="matrix(1,0,0,1,1352,1784.6999999999998) translate(15.5 68.39999999999999)"/><use xlink:href="#D" transform="matrix(1,0,0,1,1352,1784.6999999999998) translate(143.25 68.39999999999999)"/><use xlink:href="#q" transform="matrix(1,0,0,1,1352,1784.6999999999998) translate(196.10000000000002 68.39999999999999)"/><use xlink:href="#g" transform="matrix(1,0,0,1,1352,1784.6999999999998) translate(0 90)"/><use xlink:href="#E" transform="matrix(1,0,0,1,1352,1784.6999999999998) translate(15.5 90)"/><use xlink:href="#D" transform="matrix(1,0,0,1,1352,1784.6999999999998) translate(178.14999999999998 90)"/><use xlink:href="#v" transform="matrix(1,0,0,1,1352,1784.6999999999998) translate(231 90)"/></g><path d="M1520 1678v-59.5h-220v-36.02" stroke="#000" stroke-width="2" fill="none"/><path d="M1521 1679h-2v-1.03h2z"/><path d="M1300 1559.96l12.73 21.52h-25.46z" stroke="#000" stroke-width="2" fill="#fff"/><path d="M1545.6 1678v-59.5H1760v-36.02" stroke="#000" stroke-width="2" fill="none"/><path d="M1546.6 1679h-2v-1.03h2z"/><path d="M1760 1559.96l12.73 21.52h-25.46zM1340 2000h360v177h-360z" stroke="#000" stroke-width="2" fill="#fff"/><path d="M1340 2037.6h360m-360 59.1h360" stroke="#000" stroke-width="2" fill="none"/><g><use xlink:href="#U" transform="matrix(1,0,0,1,1348,2008) translate(152.05 14.6)"/></g><g><use xlink:href="#g" transform="matrix(1,0,0,1,1352,2104.7) translate(0 25.299999999999997)"/><use xlink:href="#m" transform="matrix(1,0,0,1,1352,2104.7) translate(15.5 25.299999999999997)"/><use xlink:href="#d" transform="matrix(1,0,0,1,1352,2104.7) translate(120.10000000000001 25.299999999999997)"/><use xlink:href="#g" transform="matrix(1,0,0,1,1352,2104.7) translate(0 46.9)"/><use xlink:href="#n" transform="matrix(1,0,0,1,1352,2104.7) translate(15.5 46.9)"/><use xlink:href="#f" transform="matrix(1,0,0,1,1352,2104.7) translate(137.05 46.9)"/></g><path d="M1520 1932.75V1998" stroke="#000" stroke-width="2" fill="none"/><path d="M1520 1903.4l14.85 14.86-14.85 15.15-14.85-15.14z" stroke="#000" stroke-width="2"/><path d="M1521 1999h-2v-1.03h2z"/><defs><path d="M205 0l-28-72H64L36 0H1l101-248h38L239 0h-34zm-38-99l-47-123c-12 45-31 82-46 123h93" id="V"/><path d="M114-163C36-179 61-72 57 0H25l-1-190h30c1 12-1 29 2 39 6-27 23-49 58-41v29" id="W"/><path d="M96-169c-40 0-48 33-48 73s9 75 48 75c24 0 41-14 43-38l32 2c-6 37-31 61-74 61-59 0-76-41-82-99-10-93 101-131 147-64 4 7 5 14 7 22l-32 3c-4-21-16-35-41-35" id="X"/><path d="M106-169C34-169 62-67 57 0H25v-261h32l-1 103c12-21 28-36 61-36 89 0 53 116 60 194h-32v-121c2-32-8-49-39-48" id="Y"/><path d="M100-194c63 0 86 42 84 106H49c0 40 14 67 53 68 26 1 43-12 49-29l28 8c-11 28-37 45-77 45C44 4 14-33 15-96c1-61 26-98 85-98zm52 81c6-60-76-77-97-28-3 7-6 17-6 28h103" id="Z"/><g id="a"><use transform="matrix(0.05,0,0,0.05,0,0)" xlink:href="#V"/><use transform="matrix(0.05,0,0,0.05,12,0)" xlink:href="#W"/><use transform="matrix(0.05,0,0,0.05,17.95,0)" xlink:href="#X"/><use transform="matrix(0.05,0,0,0.05,26.950000000000003,0)" xlink:href="#Y"/><use transform="matrix(0.05,0,0,0.05,36.95,0)" xlink:href="#Z"/><use transform="matrix(0.05,0,0,0.05,46.95,0)" xlink:href="#W"/></g><path d="M16-82v-28h88v28H16" id="aa"/><use transform="matrix(0.05,0,0,0.05,0,0)" xlink:href="#aa" id="b"/><path d="M141-36C126-15 110 5 73 4 37 3 15-17 15-53c-1-64 63-63 125-63 3-35-9-54-41-54-24 1-41 7-42 31l-33-3c5-37 33-52 76-52 45 0 72 20 72 64v82c-1 20 7 32 28 27v20c-31 9-61-2-59-35zM48-53c0 20 12 33 32 33 41-3 63-29 60-74-43 2-92-5-92 41" id="ab"/><path d="M24 0v-261h32V0H24" id="ac"/><path d="M59-47c-2 24 18 29 38 22v24C64 9 27 4 27-40v-127H5v-23h24l9-43h21v43h35v23H59v120" id="ad"/><path d="M33-154v-36h34v36H33zM33 0v-36h34V0H33" id="ae"/><g id="c"><use transform="matrix(0.05,0,0,0.05,0,0)" xlink:href="#Y"/><use transform="matrix(0.05,0,0,0.05,10,0)" xlink:href="#Z"/><use transform="matrix(0.05,0,0,0.05,20,0)" xlink:href="#ab"/><use transform="matrix(0.05,0,0,0.05,30,0)" xlink:href="#ac"/><use transform="matrix(0.05,0,0,0.05,33.95,0)" xlink:href="#ad"/><use transform="matrix(0.05,0,0,0.05,38.95,0)" xlink:href="#Y"/><use transform="matrix(0.05,0,0,0.05,48.95,0)" xlink:href="#ae"/></g><path d="M24-231v-30h32v30H24zM24 0v-190h32V0H24" id="af"/><path d="M117-194c89-4 53 116 60 194h-32v-121c0-31-8-49-39-48C34-167 62-67 57 0H25l-1-190h30c1 10-1 24 2 32 11-22 29-35 61-36" id="ag"/><g id="d"><use transform="matrix(0.05,0,0,0.05,0,0)" xlink:href="#af"/><use transform="matrix(0.05,0,0,0.05,3.95,0)" xlink:href="#ag"/><use transform="matrix(0.05,0,0,0.05,13.949999999999998,0)" xlink:href="#ad"/></g><path d="M210-169c-67 3-38 105-44 169h-31v-121c0-29-5-50-35-48C34-165 62-65 56 0H25l-1-190h30c1 10-1 24 2 32 10-44 99-50 107 0 11-21 27-35 58-36 85-2 47 119 55 194h-31v-121c0-29-5-49-35-48" id="ah"/><path d="M135-143c-3-34-86-38-87 0 15 53 115 12 119 90S17 21 10-45l28-5c4 36 97 45 98 0-10-56-113-15-118-90-4-57 82-63 122-42 12 7 21 19 24 35" id="ai"/><g id="e"><use transform="matrix(0.05,0,0,0.05,0,0)" xlink:href="#af"/><use transform="matrix(0.05,0,0,0.05,3.95,0)" xlink:href="#ad"/><use transform="matrix(0.05,0,0,0.05,8.95,0)" xlink:href="#Z"/><use transform="matrix(0.05,0,0,0.05,18.95,0)" xlink:href="#ah"/><use transform="matrix(0.05,0,0,0.05,33.9,0)" xlink:href="#ai"/><use transform="matrix(0.05,0,0,0.05,42.9,0)" xlink:href="#ae"/></g><g id="f"><use transform="matrix(0.05,0,0,0.05,0,0)" xlink:href="#af"/><use transform="matrix(0.05,0,0,0.05,3.95,0)" xlink:href="#ag"/><use transform="matrix(0.05,0,0,0.05,13.949999999999998,0)" xlink:href="#ad"/></g><path d="M118-107v75H92v-75H18v-26h74v-75h26v75h74v26h-74" id="aj"/><use transform="matrix(0.05,0,0,0.05,0,0)" xlink:href="#aj" id="g"/><path d="M87 75C49 33 22-17 22-94c0-76 28-126 65-167h31c-38 41-64 92-64 168S80 34 118 75H87" id="ak"/><path d="M177-190C167-65 218 103 67 71c-23-6-38-20-44-43l32-5c15 47 100 32 89-28v-30C133-14 115 1 83 1 29 1 15-40 15-95c0-56 16-97 71-98 29-1 48 16 59 35 1-10 0-23 2-32h30zM94-22c36 0 50-32 50-73 0-42-14-75-50-75-39 0-46 34-46 75s6 73 46 73" id="al"/><g id="h"><use transform="matrix(0.05,0,0,0.05,0,0)" xlink:href="#V"/><use transform="matrix(0.05,0,0,0.05,12,0)" xlink:href="#W"/><use transform="matrix(0.05,0,0,0.05,17.95,0)" xlink:href="#X"/><use transform="matrix(0.05,0,0,0.05,26.950000000000003,0)" xlink:href="#Y"/><use transform="matrix(0.05,0,0,0.05,36.95,0)" xlink:href="#Z"/><use transform="matrix(0.05,0,0,0.05,46.95,0)" xlink:href="#W"/><use transform="matrix(0.05,0,0,0.05,52.900000000000006,0)" xlink:href="#ak"/><use transform="matrix(0.05,0,0,0.05,58.85,0)" xlink:href="#ai"/><use transform="matrix(0.05,0,0,0.05,67.85000000000001,0)" xlink:href="#ad"/><use transform="matrix(0.05,0,0,0.05,72.85000000000001,0)" xlink:href="#W"/><use transform="matrix(0.05,0,0,0.05,78.80000000000001,0)" xlink:href="#af"/><use transform="matrix(0.05,0,0,0.05,82.75000000000001,0)" xlink:href="#ag"/><use transform="matrix(0.05,0,0,0.05,92.75000000000001,0)" xlink:href="#al"/></g><path d="M33-261c38 41 65 92 65 168S71 34 33 75H2C39 34 66-17 66-93S39-220 2-261h31" id="am"/><g id="i"><use transform="matrix(0.05,0,0,0.05,0,0)" xlink:href="#ag"/><use transform="matrix(0.05,0,0,0.05,10,0)" xlink:href="#ab"/><use transform="matrix(0.05,0,0,0.05,20,0)" xlink:href="#ah"/><use transform="matrix(0.05,0,0,0.05,34.95,0)" xlink:href="#Z"/><use transform="matrix(0.05,0,0,0.05,44.95,0)" xlink:href="#am"/></g><path d="M190 0L58-211 59 0H30v-248h39L202-35l-2-213h31V0h-41" id="an"/><g id="j"><use transform="matrix(0.05,0,0,0.05,0,0)" xlink:href="#an"/><use transform="matrix(0.05,0,0,0.05,12.950000000000001,0)" xlink:href="#ab"/><use transform="matrix(0.05,0,0,0.05,22.950000000000003,0)" xlink:href="#ah"/><use transform="matrix(0.05,0,0,0.05,37.900000000000006,0)" xlink:href="#Z"/><use transform="matrix(0.05,0,0,0.05,47.900000000000006,0)" xlink:href="#ae"/></g><g id="k"><use transform="matrix(0.05,0,0,0.05,0,0)" xlink:href="#ai"/><use transform="matrix(0.05,0,0,0.05,9,0)" xlink:href="#ad"/><use transform="matrix(0.05,0,0,0.05,14,0)" xlink:href="#W"/><use transform="matrix(0.05,0,0,0.05,19.95,0)" xlink:href="#af"/><use transform="matrix(0.05,0,0,0.05,23.9,0)" xlink:href="#ag"/><use transform="matrix(0.05,0,0,0.05,33.9,0)" xlink:href="#al"/></g><path d="M197 0v-115H63V0H30v-248h33v105h134v-105h34V0h-34" id="ao"/><g id="l"><use transform="matrix(0.05,0,0,0.05,0,0)" xlink:href="#ao"/><use transform="matrix(0.05,0,0,0.05,12.950000000000001,0)" xlink:href="#Z"/><use transform="matrix(0.05,0,0,0.05,22.950000000000003,0)" xlink:href="#ab"/><use transform="matrix(0.05,0,0,0.05,32.95,0)" xlink:href="#ac"/><use transform="matrix(0.05,0,0,0.05,36.900000000000006,0)" xlink:href="#ad"/><use transform="matrix(0.05,0,0,0.05,41.900000000000006,0)" xlink:href="#Y"/><use transform="matrix(0.05,0,0,0.05,51.900000000000006,0)" xlink:href="#ae"/></g><path d="M143 0L79-87 56-68V0H24v-261h32v163l83-92h37l-77 82L181 0h-38" id="ap"/><path d="M137 0h-34L2-248h35l83 218 83-218h36" id="aq"/><path d="M84 4C-5 8 30-112 23-190h32v120c0 31 7 50 39 49 72-2 45-101 50-169h31l1 190h-30c-1-10 1-25-2-33-11 22-28 36-60 37" id="ar"/><g id="m"><use transform="matrix(0.05,0,0,0.05,0,0)" xlink:href="#V"/><use transform="matrix(0.05,0,0,0.05,12,0)" xlink:href="#ad"/><use transform="matrix(0.05,0,0,0.05,17,0)" xlink:href="#ad"/><use transform="matrix(0.05,0,0,0.05,22,0)" xlink:href="#ab"/><use transform="matrix(0.05,0,0,0.05,32,0)" xlink:href="#X"/><use transform="matrix(0.05,0,0,0.05,41,0)" xlink:href="#ap"/><use transform="matrix(0.05,0,0,0.05,50,0)" xlink:href="#aq"/><use transform="matrix(0.05,0,0,0.05,60.650000000000006,0)" xlink:href="#ab"/><use transform="matrix(0.05,0,0,0.05,70.65,0)" xlink:href="#ac"/><use transform="matrix(0.05,0,0,0.05,74.60000000000001,0)" xlink:href="#ar"/><use transform="matrix(0.05,0,0,0.05,84.60000000000001,0)" xlink:href="#Z"/><use transform="matrix(0.05,0,0,0.05,94.60000000000001,0)" xlink:href="#ae"/></g><path d="M30-248c118-7 216 8 213 122C240-48 200 0 122 0H30v-248zM63-27c89 8 146-16 146-99s-60-101-146-95v194" id="as"/><path d="M101-234c-31-9-42 10-38 44h38v23H63V0H32v-167H5v-23h27c-7-52 17-82 69-68v24" id="at"/><g id="n"><use transform="matrix(0.05,0,0,0.05,0,0)" xlink:href="#as"/><use transform="matrix(0.05,0,0,0.05,12.950000000000001,0)" xlink:href="#Z"/><use transform="matrix(0.05,0,0,0.05,22.950000000000003,0)" xlink:href="#at"/><use transform="matrix(0.05,0,0,0.05,27.950000000000003,0)" xlink:href="#Z"/><use transform="matrix(0.05,0,0,0.05,37.95,0)" xlink:href="#ag"/><use transform="matrix(0.05,0,0,0.05,47.95,0)" xlink:href="#ai"/><use transform="matrix(0.05,0,0,0.05,56.95,0)" xlink:href="#Z"/><use transform="matrix(0.05,0,0,0.05,66.95,0)" xlink:href="#aq"/><use transform="matrix(0.05,0,0,0.05,77.60000000000001,0)" xlink:href="#ab"/><use transform="matrix(0.05,0,0,0.05,87.60000000000001,0)" xlink:href="#ac"/><use transform="matrix(0.05,0,0,0.05,91.55000000000001,0)" xlink:href="#ar"/><use transform="matrix(0.05,0,0,0.05,101.55000000000001,0)" xlink:href="#Z"/><use transform="matrix(0.05,0,0,0.05,111.55000000000001,0)" xlink:href="#ae"/></g><path d="M85-194c31 0 48 13 60 33l-1-100h32l1 261h-30c-2-10 0-23-3-31C134-8 116 4 85 4 32 4 16-35 15-94c0-66 23-100 70-100zm9 24c-40 0-46 34-46 75 0 40 6 74 45 74 42 0 51-32 51-76 0-42-9-74-50-73" id="au"/><path d="M33 0v-248h34V0H33" id="av"/><g id="o"><use transform="matrix(0.05,0,0,0.05,0,0)" xlink:href="#V"/><use transform="matrix(0.05,0,0,0.05,12,0)" xlink:href="#au"/><use transform="matrix(0.05,0,0,0.05,22,0)" xlink:href="#au"/><use transform="matrix(0.05,0,0,0.05,32,0)" xlink:href="#av"/><use transform="matrix(0.05,0,0,0.05,37,0)" xlink:href="#ad"/><use transform="matrix(0.05,0,0,0.05,42,0)" xlink:href="#Z"/><use transform="matrix(0.05,0,0,0.05,52,0)" xlink:href="#ah"/><use transform="matrix(0.05,0,0,0.05,66.95,0)" xlink:href="#ak"/><use transform="matrix(0.05,0,0,0.05,72.9,0)" xlink:href="#av"/><use transform="matrix(0.05,0,0,0.05,77.9,0)" xlink:href="#av"/><use transform="matrix(0.05,0,0,0.05,82.9,0)" xlink:href="#ad"/><use transform="matrix(0.05,0,0,0.05,87.9,0)" xlink:href="#Z"/><use transform="matrix(0.05,0,0,0.05,97.9,0)" xlink:href="#ah"/></g><g id="p"><use transform="matrix(0.05,0,0,0.05,0,0)" xlink:href="#af"/><use transform="matrix(0.05,0,0,0.05,3.95,0)" xlink:href="#ad"/><use transform="matrix(0.05,0,0,0.05,8.95,0)" xlink:href="#Z"/><use transform="matrix(0.05,0,0,0.05,18.95,0)" xlink:href="#ah"/><use transform="matrix(0.05,0,0,0.05,33.9,0)" xlink:href="#am"/><use transform="matrix(0.05,0,0,0.05,39.85,0)" xlink:href="#ae"/></g><path d="M108 0H70L1-190h34L89-25l56-165h34" id="aw"/><path d="M100-194c62-1 85 37 85 99 1 63-27 99-86 99S16-35 15-95c0-66 28-99 85-99zM99-20c44 1 53-31 53-75 0-43-8-75-51-75s-53 32-53 75 10 74 51 75" id="ax"/><g id="q"><use transform="matrix(0.05,0,0,0.05,0,0)" xlink:href="#aw"/><use transform="matrix(0.05,0,0,0.05,9,0)" xlink:href="#ax"/><use transform="matrix(0.05,0,0,0.05,19,0)" xlink:href="#af"/><use transform="matrix(0.05,0,0,0.05,22.95,0)" xlink:href="#au"/></g><path d="M233-177c-1 41-23 64-60 70L243 0h-38l-65-103H63V0H30v-248c88 3 205-21 203 71zM63-129c60-2 137 13 137-47 0-61-80-42-137-45v92" id="ay"/><g id="r"><use transform="matrix(0.05,0,0,0.05,0,0)" xlink:href="#ay"/><use transform="matrix(0.05,0,0,0.05,12.950000000000001,0)" xlink:href="#Z"/><use transform="matrix(0.05,0,0,0.05,22.950000000000003,0)" xlink:href="#ah"/><use transform="matrix(0.05,0,0,0.05,37.900000000000006,0)" xlink:href="#ax"/><use transform="matrix(0.05,0,0,0.05,47.900000000000006,0)" xlink:href="#aw"/><use transform="matrix(0.05,0,0,0.05,56.900000000000006,0)" xlink:href="#Z"/><use transform="matrix(0.05,0,0,0.05,66.9,0)" xlink:href="#av"/><use transform="matrix(0.05,0,0,0.05,71.9,0)" xlink:href="#ad"/><use transform="matrix(0.05,0,0,0.05,76.9,0)" xlink:href="#Z"/><use transform="matrix(0.05,0,0,0.05,86.9,0)" xlink:href="#ah"/><use transform="matrix(0.05,0,0,0.05,101.85000000000001,0)" xlink:href="#ak"/><use transform="matrix(0.05,0,0,0.05,107.80000000000001,0)" xlink:href="#av"/><use transform="matrix(0.05,0,0,0.05,112.80000000000001,0)" xlink:href="#av"/><use transform="matrix(0.05,0,0,0.05,117.80000000000001,0)" xlink:href="#ad"/><use transform="matrix(0.05,0,0,0.05,122.80000000000001,0)" xlink:href="#Z"/><use transform="matrix(0.05,0,0,0.05,132.8,0)" xlink:href="#ah"/></g><path d="M212-179c-10-28-35-45-73-45-59 0-87 40-87 99 0 60 29 101 89 101 43 0 62-24 78-52l27 14C228-24 195 4 139 4 59 4 22-46 18-125c-6-104 99-153 187-111 19 9 31 26 39 46" id="az"/><g id="s"><use transform="matrix(0.05,0,0,0.05,0,0)" xlink:href="#az"/><use transform="matrix(0.05,0,0,0.05,12.950000000000001,0)" xlink:href="#ar"/><use transform="matrix(0.05,0,0,0.05,22.950000000000003,0)" xlink:href="#W"/><use transform="matrix(0.05,0,0,0.05,28.900000000000002,0)" xlink:href="#Z"/><use transform="matrix(0.05,0,0,0.05,38.900000000000006,0)" xlink:href="#ak"/><use transform="matrix(0.05,0,0,0.05,44.85000000000001,0)" xlink:href="#am"/><use transform="matrix(0.05,0,0,0.05,50.80000000000001,0)" xlink:href="#ae"/></g><g id="t"><use transform="matrix(0.05,0,0,0.05,0,0)" xlink:href="#ay"/><use transform="matrix(0.05,0,0,0.05,12.950000000000001,0)" xlink:href="#Z"/><use transform="matrix(0.05,0,0,0.05,22.950000000000003,0)" xlink:href="#X"/><use transform="matrix(0.05,0,0,0.05,31.950000000000003,0)" xlink:href="#Z"/><use transform="matrix(0.05,0,0,0.05,41.95,0)" xlink:href="#af"/><use transform="matrix(0.05,0,0,0.05,45.900000000000006,0)" xlink:href="#aw"/><use transform="matrix(0.05,0,0,0.05,54.900000000000006,0)" xlink:href="#Z"/><use transform="matrix(0.05,0,0,0.05,64.9,0)" xlink:href="#V"/><use transform="matrix(0.05,0,0,0.05,76.9,0)" xlink:href="#ad"/><use transform="matrix(0.05,0,0,0.05,81.9,0)" xlink:href="#ad"/><use transform="matrix(0.05,0,0,0.05,86.9,0)" xlink:href="#ab"/><use transform="matrix(0.05,0,0,0.05,96.9,0)" xlink:href="#X"/><use transform="matrix(0.05,0,0,0.05,105.9,0)" xlink:href="#ap"/><use transform="matrix(0.05,0,0,0.05,114.9,0)" xlink:href="#ak"/><use transform="matrix(0.05,0,0,0.05,120.85000000000001,0)" xlink:href="#af"/><use transform="matrix(0.05,0,0,0.05,124.80000000000001,0)" xlink:href="#ag"/><use transform="matrix(0.05,0,0,0.05,134.8,0)" xlink:href="#ad"/></g><path d="M115-194c55 1 70 41 70 98S169 2 115 4C84 4 66-9 55-30l1 105H24l-1-265h31l2 30c10-21 28-34 59-34zm-8 174c40 0 45-34 45-75s-6-73-45-74c-42 0-51 32-51 76 0 43 10 73 51 73" id="aA"/><path d="M206 0h-36l-40-164L89 0H53L-1-190h32L70-26l43-164h34l41 164 42-164h31" id="aB"/><g id="u"><use transform="matrix(0.05,0,0,0.05,0,0)" xlink:href="#aA"/><use transform="matrix(0.05,0,0,0.05,10,0)" xlink:href="#ax"/><use transform="matrix(0.05,0,0,0.05,20,0)" xlink:href="#aB"/><use transform="matrix(0.05,0,0,0.05,32.95,0)" xlink:href="#Z"/><use transform="matrix(0.05,0,0,0.05,42.95,0)" xlink:href="#W"/><use transform="matrix(0.05,0,0,0.05,48.900000000000006,0)" xlink:href="#am"/><use transform="matrix(0.05,0,0,0.05,54.85,0)" xlink:href="#ae"/></g><g id="v"><use transform="matrix(0.05,0,0,0.05,0,0)" xlink:href="#aw"/><use transform="matrix(0.05,0,0,0.05,9,0)" xlink:href="#ax"/><use transform="matrix(0.05,0,0,0.05,19,0)" xlink:href="#af"/><use transform="matrix(0.05,0,0,0.05,22.95,0)" xlink:href="#au"/></g><path d="M23-100v-36l175-74v27L47-118l151 64v27" id="aC"/><path d="M50-231l6-30h32l-6 30H50zM6 0l37-190h31L37 0H6" id="aD"/><path d="M67-158c22-48 132-52 116 29L158 0h-32l25-140c3-38-53-32-70-12C52-117 51-52 38 0H6l36-190h30" id="aE"/><path d="M51-54c-9 22 5 41 31 30L79-1C43 14 10-4 19-52l22-115H19l5-23h22l19-43h21l-9 43h35l-4 23H73" id="aF"/><path d="M111-194c62-3 86 47 72 106H45c-7 38 6 69 45 68 27-1 43-14 53-32l24 11C152-15 129 4 87 4 38 3 12-23 12-71c0-70 32-119 99-123zm44 81c14-66-71-72-95-28-4 8-8 17-11 28h106" id="aG"/><path d="M66-151c12-25 30-51 66-40l-6 26C45-176 58-65 38 0H6l36-190h30" id="aH"/><path d="M76-167L44 0H12l33-167H18l4-23h27c3-47 25-81 82-69l-4 24c-35-8-44 15-46 45h37l-5 23H76" id="aI"/><path d="M165-48c-4 18 1 34 23 27l-3 20c-29 8-62 0-52-35h-2C116-14 99 4 63 4 30 4 8-16 8-49c0-68 71-67 138-67 10-26 0-56-31-54-26 1-42 9-47 31l-32-5c8-67 160-71 144 15-5 28-9 54-15 81zM42-50c3 52 80 24 89-6 7-12 7-24 11-38-47 1-103-4-100 44" id="aJ"/><path d="M44-68c0 29 11 47 38 47 30 0 42-19 51-41l28 9C148-21 126 4 82 4 31 4 10-29 12-85c3-77 74-140 146-93 12 8 15 23 18 40l-31 5c-1-22-13-36-36-36-52 0-65 49-65 101" id="aK"/><path d="M23-27v-27l151-64-151-65v-27l175 74v36" id="aL"/><g id="w"><use transform="matrix(0.05,0,0,0.05,0,0)" xlink:href="#aC"/><use transform="matrix(0.05,0,0,0.05,10.5,0)" xlink:href="#aC"/><use transform="matrix(0.05,0,0,0.05,21,0)" xlink:href="#aD"/><use transform="matrix(0.05,0,0,0.05,24.95,0)" xlink:href="#aE"/><use transform="matrix(0.05,0,0,0.05,34.95,0)" xlink:href="#aF"/><use transform="matrix(0.05,0,0,0.05,39.95,0)" xlink:href="#aG"/><use transform="matrix(0.05,0,0,0.05,49.95,0)" xlink:href="#aH"/><use transform="matrix(0.05,0,0,0.05,55.900000000000006,0)" xlink:href="#aI"/><use transform="matrix(0.05,0,0,0.05,60.900000000000006,0)" xlink:href="#aJ"/><use transform="matrix(0.05,0,0,0.05,70.9,0)" xlink:href="#aK"/><use transform="matrix(0.05,0,0,0.05,79.9,0)" xlink:href="#aG"/><use transform="matrix(0.05,0,0,0.05,89.9,0)" xlink:href="#aL"/><use transform="matrix(0.05,0,0,0.05,100.4,0)" xlink:href="#aL"/></g><path d="M14 0l48-248h34L48 0H14" id="aM"/><path d="M125-24c46 0 70-25 89-51l25 16C214-24 183 4 123 4 8 4-5-146 60-208c32-50 158-61 191-5 5 7 9 14 11 22l-32 10c-9-28-33-43-69-43-74 0-108 51-108 125 0 46 24 75 72 75" id="aN"/><path d="M67-158c15-20 31-36 64-36 94 0 33 127 27 194h-32l25-140c3-38-53-32-70-12C52-117 51-51 37 0H6l51-261h31" id="aO"/><g id="x"><use transform="matrix(0.05,0,0,0.05,0,0)" xlink:href="#aM"/><use transform="matrix(0.05,0,0,0.05,5,0)" xlink:href="#aN"/><use transform="matrix(0.05,0,0,0.05,17.950000000000003,0)" xlink:href="#aO"/><use transform="matrix(0.05,0,0,0.05,27.950000000000003,0)" xlink:href="#aJ"/><use transform="matrix(0.05,0,0,0.05,37.95,0)" xlink:href="#aH"/><use transform="matrix(0.05,0,0,0.05,43.900000000000006,0)" xlink:href="#aJ"/><use transform="matrix(0.05,0,0,0.05,53.900000000000006,0)" xlink:href="#aK"/><use transform="matrix(0.05,0,0,0.05,62.900000000000006,0)" xlink:href="#aF"/><use transform="matrix(0.05,0,0,0.05,67.9,0)" xlink:href="#aG"/><use transform="matrix(0.05,0,0,0.05,77.9,0)" xlink:href="#aH"/></g><g id="y"><use transform="matrix(0.05,0,0,0.05,0,0)" xlink:href="#ay"/><use transform="matrix(0.05,0,0,0.05,12.950000000000001,0)" xlink:href="#Z"/><use transform="matrix(0.05,0,0,0.05,22.950000000000003,0)" xlink:href="#ah"/><use transform="matrix(0.05,0,0,0.05,37.900000000000006,0)" xlink:href="#ax"/><use transform="matrix(0.05,0,0,0.05,47.900000000000006,0)" xlink:href="#ad"/><use transform="matrix(0.05,0,0,0.05,52.900000000000006,0)" xlink:href="#Z"/><use transform="matrix(0.05,0,0,0.05,62.900000000000006,0)" xlink:href="#av"/><use transform="matrix(0.05,0,0,0.05,67.9,0)" xlink:href="#ad"/><use transform="matrix(0.05,0,0,0.05,72.9,0)" xlink:href="#Z"/><use transform="matrix(0.05,0,0,0.05,82.9,0)" xlink:href="#ah"/><use transform="matrix(0.05,0,0,0.05,97.85000000000001,0)" xlink:href="#ak"/><use transform="matrix(0.05,0,0,0.05,103.80000000000001,0)" xlink:href="#av"/><use transform="matrix(0.05,0,0,0.05,108.80000000000001,0)" xlink:href="#av"/><use transform="matrix(0.05,0,0,0.05,113.80000000000001,0)" xlink:href="#ad"/><use transform="matrix(0.05,0,0,0.05,118.80000000000001,0)" xlink:href="#Z"/><use transform="matrix(0.05,0,0,0.05,128.8,0)" xlink:href="#ah"/></g><g id="z"><use transform="matrix(0.05,0,0,0.05,0,0)" xlink:href="#as"/><use transform="matrix(0.05,0,0,0.05,12.950000000000001,0)" xlink:href="#aB"/><use transform="matrix(0.05,0,0,0.05,25.900000000000002,0)" xlink:href="#ab"/><use transform="matrix(0.05,0,0,0.05,35.900000000000006,0)" xlink:href="#W"/><use transform="matrix(0.05,0,0,0.05,41.85000000000001,0)" xlink:href="#at"/></g><path d="M194 0L95-120 63-95V0H30v-248h33v124l119-124h40L117-140 236 0h-42" id="aP"/><g id="A"><use transform="matrix(0.05,0,0,0.05,0,0)" xlink:href="#aP"/><use transform="matrix(0.05,0,0,0.05,12,0)" xlink:href="#ag"/><use transform="matrix(0.05,0,0,0.05,22,0)" xlink:href="#af"/><use transform="matrix(0.05,0,0,0.05,25.950000000000003,0)" xlink:href="#al"/><use transform="matrix(0.05,0,0,0.05,35.95,0)" xlink:href="#Y"/><use transform="matrix(0.05,0,0,0.05,45.95,0)" xlink:href="#ad"/></g><path d="M222 0l43-216c-8 16-17 34-26 49L143 0h-22L81-216 41 0H11l48-248h42l38 208 116-208h45L252 0h-30" id="aQ"/><path d="M103-194c29 0 47 14 56 36 2-11 5-23 8-32h30L160-5C157 61 82 97 21 62 9 55 4 45 1 30l28-7c7 42 83 31 92-3 4-16 9-38 13-55-13 20-29 36-62 36-40 0-60-25-60-64 0-71 23-131 91-131zm4 24c-53 0-58 54-61 104-2 27 10 44 36 44 49 0 65-50 67-102 1-29-15-46-42-46" id="aR"/><g id="B"><use transform="matrix(0.05,0,0,0.05,0,0)" xlink:href="#aM"/><use transform="matrix(0.05,0,0,0.05,5,0)" xlink:href="#aQ"/><use transform="matrix(0.05,0,0,0.05,19.950000000000003,0)" xlink:href="#aJ"/><use transform="matrix(0.05,0,0,0.05,29.950000000000003,0)" xlink:href="#aR"/><use transform="matrix(0.05,0,0,0.05,39.95,0)" xlink:href="#aD"/><use transform="matrix(0.05,0,0,0.05,43.900000000000006,0)" xlink:href="#aK"/><use transform="matrix(0.05,0,0,0.05,52.900000000000006,0)" xlink:href="#aN"/><use transform="matrix(0.05,0,0,0.05,65.85000000000001,0)" xlink:href="#aO"/><use transform="matrix(0.05,0,0,0.05,75.85000000000001,0)" xlink:href="#aJ"/><use transform="matrix(0.05,0,0,0.05,85.85000000000001,0)" xlink:href="#aH"/><use transform="matrix(0.05,0,0,0.05,91.80000000000001,0)" xlink:href="#aJ"/><use transform="matrix(0.05,0,0,0.05,101.80000000000001,0)" xlink:href="#aK"/><use transform="matrix(0.05,0,0,0.05,110.80000000000001,0)" xlink:href="#aF"/><use transform="matrix(0.05,0,0,0.05,115.80000000000001,0)" xlink:href="#aG"/><use transform="matrix(0.05,0,0,0.05,125.80000000000001,0)" xlink:href="#aH"/></g><path d="M185-189c-5-48-123-54-124 2 14 75 158 14 163 119 3 78-121 87-175 55-17-10-28-26-33-46l33-7c5 56 141 63 141-1 0-78-155-14-162-118-5-82 145-84 179-34 5 7 8 16 11 25" id="aS"/><g id="C"><use transform="matrix(0.05,0,0,0.05,0,0)" xlink:href="#V"/><use transform="matrix(0.05,0,0,0.05,12,0)" xlink:href="#au"/><use transform="matrix(0.05,0,0,0.05,22,0)" xlink:href="#au"/><use transform="matrix(0.05,0,0,0.05,32,0)" xlink:href="#aS"/><use transform="matrix(0.05,0,0,0.05,44,0)" xlink:href="#aA"/><use transform="matrix(0.05,0,0,0.05,54,0)" xlink:href="#Z"/><use transform="matrix(0.05,0,0,0.05,64,0)" xlink:href="#ac"/><use transform="matrix(0.05,0,0,0.05,67.95,0)" xlink:href="#ac"/><use transform="matrix(0.05,0,0,0.05,71.9,0)" xlink:href="#ak"/><use transform="matrix(0.05,0,0,0.05,77.85000000000001,0)" xlink:href="#av"/><use transform="matrix(0.05,0,0,0.05,82.85000000000001,0)" xlink:href="#aS"/><use transform="matrix(0.05,0,0,0.05,94.85000000000001,0)" xlink:href="#aA"/><use transform="matrix(0.05,0,0,0.05,104.85000000000001,0)" xlink:href="#Z"/><use transform="matrix(0.05,0,0,0.05,114.85000000000001,0)" xlink:href="#ac"/><use transform="matrix(0.05,0,0,0.05,118.80000000000001,0)" xlink:href="#ac"/></g><g id="D"><use transform="matrix(0.05,0,0,0.05,0,0)" xlink:href="#ai"/><use transform="matrix(0.05,0,0,0.05,9,0)" xlink:href="#aA"/><use transform="matrix(0.05,0,0,0.05,19,0)" xlink:href="#Z"/><use transform="matrix(0.05,0,0,0.05,29,0)" xlink:href="#ac"/><use transform="matrix(0.05,0,0,0.05,32.95,0)" xlink:href="#ac"/><use transform="matrix(0.05,0,0,0.05,36.900000000000006,0)" xlink:href="#am"/><use transform="matrix(0.05,0,0,0.05,42.85000000000001,0)" xlink:href="#ae"/></g><g id="E"><use transform="matrix(0.05,0,0,0.05,0,0)" xlink:href="#ay"/><use transform="matrix(0.05,0,0,0.05,12.950000000000001,0)" xlink:href="#Z"/><use transform="matrix(0.05,0,0,0.05,22.950000000000003,0)" xlink:href="#ah"/><use transform="matrix(0.05,0,0,0.05,37.900000000000006,0)" xlink:href="#ax"/><use transform="matrix(0.05,0,0,0.05,47.900000000000006,0)" xlink:href="#aw"/><use transform="matrix(0.05,0,0,0.05,56.900000000000006,0)" xlink:href="#Z"/><use transform="matrix(0.05,0,0,0.05,66.9,0)" xlink:href="#aS"/><use transform="matrix(0.05,0,0,0.05,78.9,0)" xlink:href="#aA"/><use transform="matrix(0.05,0,0,0.05,88.9,0)" xlink:href="#Z"/><use transform="matrix(0.05,0,0,0.05,98.9,0)" xlink:href="#ac"/><use transform="matrix(0.05,0,0,0.05,102.85000000000001,0)" xlink:href="#ac"/><use transform="matrix(0.05,0,0,0.05,106.80000000000001,0)" xlink:href="#ak"/><use transform="matrix(0.05,0,0,0.05,112.75,0)" xlink:href="#av"/><use transform="matrix(0.05,0,0,0.05,117.75,0)" xlink:href="#aS"/><use transform="matrix(0.05,0,0,0.05,129.75,0)" xlink:href="#aA"/><use transform="matrix(0.05,0,0,0.05,139.75,0)" xlink:href="#Z"/><use transform="matrix(0.05,0,0,0.05,149.75,0)" xlink:href="#ac"/><use transform="matrix(0.05,0,0,0.05,153.7,0)" xlink:href="#ac"/></g><path d="M240 0l2-218c-23 76-54 145-80 218h-23L58-218 59 0H30v-248h44l77 211c21-75 51-140 76-211h43V0h-30" id="aT"/><g id="F"><use transform="matrix(0.05,0,0,0.05,0,0)" xlink:href="#V"/><use transform="matrix(0.05,0,0,0.05,12,0)" xlink:href="#au"/><use transform="matrix(0.05,0,0,0.05,22,0)" xlink:href="#au"/><use transform="matrix(0.05,0,0,0.05,32,0)" xlink:href="#av"/><use transform="matrix(0.05,0,0,0.05,37,0)" xlink:href="#ad"/><use transform="matrix(0.05,0,0,0.05,42,0)" xlink:href="#Z"/><use transform="matrix(0.05,0,0,0.05,52,0)" xlink:href="#ah"/><use transform="matrix(0.05,0,0,0.05,66.95,0)" xlink:href="#ak"/><use transform="matrix(0.05,0,0,0.05,72.9,0)" xlink:href="#av"/><use transform="matrix(0.05,0,0,0.05,77.9,0)" xlink:href="#aT"/><use transform="matrix(0.05,0,0,0.05,92.85000000000001,0)" xlink:href="#ab"/><use transform="matrix(0.05,0,0,0.05,102.85000000000001,0)" xlink:href="#al"/><use transform="matrix(0.05,0,0,0.05,112.85000000000001,0)" xlink:href="#af"/><use transform="matrix(0.05,0,0,0.05,116.80000000000001,0)" xlink:href="#X"/><use transform="matrix(0.05,0,0,0.05,125.80000000000001,0)" xlink:href="#ab"/><use transform="matrix(0.05,0,0,0.05,135.8,0)" xlink:href="#ac"/><use transform="matrix(0.05,0,0,0.05,139.75,0)" xlink:href="#av"/><use transform="matrix(0.05,0,0,0.05,144.75,0)" xlink:href="#ad"/><use transform="matrix(0.05,0,0,0.05,149.75,0)" xlink:href="#Z"/><use transform="matrix(0.05,0,0,0.05,159.75,0)" xlink:href="#ah"/></g><g id="G"><use transform="matrix(0.05,0,0,0.05,0,0)" xlink:href="#ay"/><use transform="matrix(0.05,0,0,0.05,12.950000000000001,0)" xlink:href="#Z"/><use transform="matrix(0.05,0,0,0.05,22.950000000000003,0)" xlink:href="#ah"/><use transform="matrix(0.05,0,0,0.05,37.900000000000006,0)" xlink:href="#ax"/><use transform="matrix(0.05,0,0,0.05,47.900000000000006,0)" xlink:href="#aw"/><use transform="matrix(0.05,0,0,0.05,56.900000000000006,0)" xlink:href="#Z"/><use transform="matrix(0.05,0,0,0.05,66.9,0)" xlink:href="#av"/><use transform="matrix(0.05,0,0,0.05,71.9,0)" xlink:href="#ad"/><use transform="matrix(0.05,0,0,0.05,76.9,0)" xlink:href="#Z"/><use transform="matrix(0.05,0,0,0.05,86.9,0)" xlink:href="#ah"/><use transform="matrix(0.05,0,0,0.05,101.85000000000001,0)" xlink:href="#ak"/><use transform="matrix(0.05,0,0,0.05,107.80000000000001,0)" xlink:href="#av"/><use transform="matrix(0.05,0,0,0.05,112.80000000000001,0)" xlink:href="#aT"/><use transform="matrix(0.05,0,0,0.05,127.75,0)" xlink:href="#ab"/><use transform="matrix(0.05,0,0,0.05,137.75,0)" xlink:href="#al"/><use transform="matrix(0.05,0,0,0.05,147.75,0)" xlink:href="#af"/><use transform="matrix(0.05,0,0,0.05,151.7,0)" xlink:href="#X"/><use transform="matrix(0.05,0,0,0.05,160.7,0)" xlink:href="#ab"/><use transform="matrix(0.05,0,0,0.05,170.7,0)" xlink:href="#ac"/><use transform="matrix(0.05,0,0,0.05,174.64999999999998,0)" xlink:href="#av"/><use transform="matrix(0.05,0,0,0.05,179.64999999999998,0)" xlink:href="#ad"/><use transform="matrix(0.05,0,0,0.05,184.64999999999998,0)" xlink:href="#Z"/><use transform="matrix(0.05,0,0,0.05,194.64999999999998,0)" xlink:href="#ah"/></g><path d="M266 0h-40l-56-210L115 0H75L2-248h35L96-30l15-64 43-154h32l59 218 59-218h35" id="aU"/><path d="M9 0v-24l116-142H16v-24h144v24L44-24h123V0H9" id="aV"/><g id="H"><use transform="matrix(0.05,0,0,0.05,0,0)" xlink:href="#aU"/><use transform="matrix(0.05,0,0,0.05,16.95,0)" xlink:href="#af"/><use transform="matrix(0.05,0,0,0.05,20.9,0)" xlink:href="#aV"/><use transform="matrix(0.05,0,0,0.05,29.899999999999995,0)" xlink:href="#ab"/><use transform="matrix(0.05,0,0,0.05,39.9,0)" xlink:href="#W"/><use transform="matrix(0.05,0,0,0.05,45.85,0)" xlink:href="#au"/></g><g id="I"><use transform="matrix(0.05,0,0,0.05,0,0)" xlink:href="#ah"/><use transform="matrix(0.05,0,0,0.05,14.950000000000001,0)" xlink:href="#ab"/><use transform="matrix(0.05,0,0,0.05,24.950000000000003,0)" xlink:href="#al"/><use transform="matrix(0.05,0,0,0.05,34.95,0)" xlink:href="#af"/><use transform="matrix(0.05,0,0,0.05,38.900000000000006,0)" xlink:href="#X"/><use transform="matrix(0.05,0,0,0.05,47.900000000000006,0)" xlink:href="#ab"/><use transform="matrix(0.05,0,0,0.05,57.900000000000006,0)" xlink:href="#ac"/><use transform="matrix(0.05,0,0,0.05,61.85,0)" xlink:href="#av"/><use transform="matrix(0.05,0,0,0.05,66.85000000000001,0)" xlink:href="#ad"/><use transform="matrix(0.05,0,0,0.05,71.85000000000001,0)" xlink:href="#Z"/><use transform="matrix(0.05,0,0,0.05,81.85000000000001,0)" xlink:href="#ah"/><use transform="matrix(0.05,0,0,0.05,96.80000000000001,0)" xlink:href="#ai"/></g><path d="M248-111c6-24 9-61-24-58-72 9-57 108-77 169h-31l26-142c3-37-50-30-64-10C52-115 50-51 37 0H6l36-190h30c-1 10-6 24-4 32 13-43 101-52 105 5 13-22 29-41 61-41 90 0 28 129 23 194h-31" id="aW"/><g id="J"><use transform="matrix(0.05,0,0,0.05,0,0)" xlink:href="#aM"/><use transform="matrix(0.05,0,0,0.05,5,0)" xlink:href="#aM"/><use transform="matrix(0.05,0,0,0.05,10,0)" xlink:href="#aF"/><use transform="matrix(0.05,0,0,0.05,15,0)" xlink:href="#aG"/><use transform="matrix(0.05,0,0,0.05,25,0)" xlink:href="#aW"/></g><path d="M6 0l50-261h32L37 0H6" id="aX"/><g id="K"><use transform="matrix(0.05,0,0,0.05,0,0)" xlink:href="#aM"/><use transform="matrix(0.05,0,0,0.05,5,0)" xlink:href="#aQ"/><use transform="matrix(0.05,0,0,0.05,19.950000000000003,0)" xlink:href="#aJ"/><use transform="matrix(0.05,0,0,0.05,29.950000000000003,0)" xlink:href="#aR"/><use transform="matrix(0.05,0,0,0.05,39.95,0)" xlink:href="#aD"/><use transform="matrix(0.05,0,0,0.05,43.900000000000006,0)" xlink:href="#aK"/><use transform="matrix(0.05,0,0,0.05,52.900000000000006,0)" xlink:href="#aJ"/><use transform="matrix(0.05,0,0,0.05,62.900000000000006,0)" xlink:href="#aX"/><use transform="matrix(0.05,0,0,0.05,66.85000000000001,0)" xlink:href="#aM"/><use transform="matrix(0.05,0,0,0.05,71.85000000000001,0)" xlink:href="#aF"/><use transform="matrix(0.05,0,0,0.05,76.85000000000001,0)" xlink:href="#aG"/><use transform="matrix(0.05,0,0,0.05,86.85000000000001,0)" xlink:href="#aW"/></g><path d="M187 0l-14-72H61L19 0h-37l149-248h38L221 0h-34zm-19-99l-22-123L76-99h92" id="aY"/><path d="M127 0L80-88 50-66 37 0H6l51-261h31L57-100l99-90h39l-93 82L161 0h-34" id="aZ"/><g id="L"><use transform="matrix(0.05,0,0,0.05,0,0)" xlink:href="#aM"/><use transform="matrix(0.05,0,0,0.05,5,0)" xlink:href="#aY"/><use transform="matrix(0.05,0,0,0.05,17,0)" xlink:href="#aF"/><use transform="matrix(0.05,0,0,0.05,22,0)" xlink:href="#aF"/><use transform="matrix(0.05,0,0,0.05,27,0)" xlink:href="#aJ"/><use transform="matrix(0.05,0,0,0.05,37,0)" xlink:href="#aK"/><use transform="matrix(0.05,0,0,0.05,46,0)" xlink:href="#aZ"/><use transform="matrix(0.05,0,0,0.05,55,0)" xlink:href="#aM"/><use transform="matrix(0.05,0,0,0.05,60,0)" xlink:href="#aF"/><use transform="matrix(0.05,0,0,0.05,65,0)" xlink:href="#aG"/><use transform="matrix(0.05,0,0,0.05,75,0)" xlink:href="#aW"/></g><path d="M248-139C247-14 144 9 11 0l48-248c105-6 190 8 189 109zm-34 0c1-70-52-87-126-82L50-27c98 7 163-21 164-112" id="ba"/><path d="M55-144c13 50 104 24 104 88C159 21 15 23 1-39l26-10c6 40 102 42 102-4-13-50-104-23-104-87 0-71 143-71 148-8l-29 4c-5-35-85-37-89 0" id="bb"/><g id="M"><use transform="matrix(0.05,0,0,0.05,0,0)" xlink:href="#aM"/><use transform="matrix(0.05,0,0,0.05,5,0)" xlink:href="#ba"/><use transform="matrix(0.05,0,0,0.05,17.950000000000003,0)" xlink:href="#aG"/><use transform="matrix(0.05,0,0,0.05,27.950000000000003,0)" xlink:href="#aI"/><use transform="matrix(0.05,0,0,0.05,32.95,0)" xlink:href="#aG"/><use transform="matrix(0.05,0,0,0.05,42.95,0)" xlink:href="#aE"/><use transform="matrix(0.05,0,0,0.05,52.95,0)" xlink:href="#bb"/><use transform="matrix(0.05,0,0,0.05,61.95,0)" xlink:href="#aG"/><use transform="matrix(0.05,0,0,0.05,71.95,0)" xlink:href="#aM"/><use transform="matrix(0.05,0,0,0.05,76.95,0)" xlink:href="#aF"/><use transform="matrix(0.05,0,0,0.05,81.95,0)" xlink:href="#aG"/><use transform="matrix(0.05,0,0,0.05,91.95,0)" xlink:href="#aW"/></g><g id="N"><use transform="matrix(0.05,0,0,0.05,0,0)" xlink:href="#aM"/><use transform="matrix(0.05,0,0,0.05,5,0)" xlink:href="#aQ"/><use transform="matrix(0.05,0,0,0.05,19.950000000000003,0)" xlink:href="#aJ"/><use transform="matrix(0.05,0,0,0.05,29.950000000000003,0)" xlink:href="#aR"/><use transform="matrix(0.05,0,0,0.05,39.95,0)" xlink:href="#aD"/><use transform="matrix(0.05,0,0,0.05,43.900000000000006,0)" xlink:href="#aK"/><use transform="matrix(0.05,0,0,0.05,52.900000000000006,0)" xlink:href="#aJ"/><use transform="matrix(0.05,0,0,0.05,62.900000000000006,0)" xlink:href="#aX"/><use transform="matrix(0.05,0,0,0.05,66.85000000000001,0)" xlink:href="#aY"/><use transform="matrix(0.05,0,0,0.05,78.85000000000001,0)" xlink:href="#aF"/><use transform="matrix(0.05,0,0,0.05,83.85000000000001,0)" xlink:href="#aF"/><use transform="matrix(0.05,0,0,0.05,88.85000000000001,0)" xlink:href="#aJ"/><use transform="matrix(0.05,0,0,0.05,98.85000000000001,0)" xlink:href="#aK"/><use transform="matrix(0.05,0,0,0.05,107.85000000000001,0)" xlink:href="#aZ"/><use transform="matrix(0.05,0,0,0.05,116.85000000000001,0)" xlink:href="#aM"/><use transform="matrix(0.05,0,0,0.05,121.85000000000001,0)" xlink:href="#aF"/><use transform="matrix(0.05,0,0,0.05,126.85000000000001,0)" xlink:href="#aG"/><use transform="matrix(0.05,0,0,0.05,136.85000000000002,0)" xlink:href="#aW"/></g><g id="O"><use transform="matrix(0.05,0,0,0.05,0,0)" xlink:href="#aM"/><use transform="matrix(0.05,0,0,0.05,5,0)" xlink:href="#aQ"/><use transform="matrix(0.05,0,0,0.05,19.950000000000003,0)" xlink:href="#aJ"/><use transform="matrix(0.05,0,0,0.05,29.950000000000003,0)" xlink:href="#aR"/><use transform="matrix(0.05,0,0,0.05,39.95,0)" xlink:href="#aD"/><use transform="matrix(0.05,0,0,0.05,43.900000000000006,0)" xlink:href="#aK"/><use transform="matrix(0.05,0,0,0.05,52.900000000000006,0)" xlink:href="#aJ"/><use transform="matrix(0.05,0,0,0.05,62.900000000000006,0)" xlink:href="#aX"/><use transform="matrix(0.05,0,0,0.05,66.85000000000001,0)" xlink:href="#ba"/><use transform="matrix(0.05,0,0,0.05,79.80000000000001,0)" xlink:href="#aG"/><use transform="matrix(0.05,0,0,0.05,89.80000000000001,0)" xlink:href="#aI"/><use transform="matrix(0.05,0,0,0.05,94.80000000000001,0)" xlink:href="#aG"/><use transform="matrix(0.05,0,0,0.05,104.80000000000001,0)" xlink:href="#aE"/><use transform="matrix(0.05,0,0,0.05,114.80000000000001,0)" xlink:href="#bb"/><use transform="matrix(0.05,0,0,0.05,123.80000000000001,0)" xlink:href="#aG"/><use transform="matrix(0.05,0,0,0.05,133.8,0)" xlink:href="#aM"/><use transform="matrix(0.05,0,0,0.05,138.8,0)" xlink:href="#aF"/><use transform="matrix(0.05,0,0,0.05,143.8,0)" xlink:href="#aG"/><use transform="matrix(0.05,0,0,0.05,153.8,0)" xlink:href="#aW"/></g><path d="M141 0L90-78 38 0H4l68-98-65-92h35l48 74 47-74h35l-64 92 68 98h-35" id="bc"/><g id="P"><use transform="matrix(0.05,0,0,0.05,0,0)" xlink:href="#V"/><use transform="matrix(0.05,0,0,0.05,12,0)" xlink:href="#bc"/><use transform="matrix(0.05,0,0,0.05,21,0)" xlink:href="#Z"/></g><g id="Q"><use transform="matrix(0.05,0,0,0.05,0,0)" xlink:href="#aS"/><use transform="matrix(0.05,0,0,0.05,12,0)" xlink:href="#ad"/><use transform="matrix(0.05,0,0,0.05,17,0)" xlink:href="#ab"/><use transform="matrix(0.05,0,0,0.05,27,0)" xlink:href="#at"/><use transform="matrix(0.05,0,0,0.05,31.649999999999995,0)" xlink:href="#at"/></g><path d="M160-131c35 5 61 23 61 61C221 17 115-2 30 0v-248c76 3 177-17 177 60 0 33-19 50-47 57zm-97-11c50-1 110 9 110-42 0-47-63-36-110-37v79zm0 115c55-2 124 14 124-45 0-56-70-42-124-44v89" id="bd"/><g id="R"><use transform="matrix(0.05,0,0,0.05,0,0)" xlink:href="#aS"/><use transform="matrix(0.05,0,0,0.05,12,0)" xlink:href="#aA"/><use transform="matrix(0.05,0,0,0.05,22,0)" xlink:href="#Z"/><use transform="matrix(0.05,0,0,0.05,32,0)" xlink:href="#ac"/><use transform="matrix(0.05,0,0,0.05,35.95,0)" xlink:href="#ac"/><use transform="matrix(0.05,0,0,0.05,39.900000000000006,0)" xlink:href="#ai"/><use transform="matrix(0.05,0,0,0.05,48.900000000000006,0)" xlink:href="#bd"/><use transform="matrix(0.05,0,0,0.05,60.900000000000006,0)" xlink:href="#ax"/><use transform="matrix(0.05,0,0,0.05,70.9,0)" xlink:href="#ax"/><use transform="matrix(0.05,0,0,0.05,80.9,0)" xlink:href="#ap"/></g><g id="S"><use transform="matrix(0.05,0,0,0.05,0,0)" xlink:href="#ai"/><use transform="matrix(0.05,0,0,0.05,9,0)" xlink:href="#aA"/><use transform="matrix(0.05,0,0,0.05,19,0)" xlink:href="#Z"/><use transform="matrix(0.05,0,0,0.05,29,0)" xlink:href="#ac"/><use transform="matrix(0.05,0,0,0.05,32.95,0)" xlink:href="#ac"/><use transform="matrix(0.05,0,0,0.05,36.900000000000006,0)" xlink:href="#ai"/><use transform="matrix(0.05,0,0,0.05,45.900000000000006,0)" xlink:href="#ae"/></g><path d="M30 0v-248h33v221h125V0H30" id="be"/><path d="M18-100v-36l175-74v27L42-118l151 64v27" id="bf"/><path d="M18-27v-27l151-64-151-65v-27l175 74v36" id="bg"/><g id="T"><use transform="matrix(0.05,0,0,0.05,0,0)" xlink:href="#be"/><use transform="matrix(0.05,0,0,0.05,10,0)" xlink:href="#af"/><use transform="matrix(0.05,0,0,0.05,13.949999999999998,0)" xlink:href="#ai"/><use transform="matrix(0.05,0,0,0.05,22.95,0)" xlink:href="#ad"/><use transform="matrix(0.05,0,0,0.05,27.950000000000003,0)" xlink:href="#bf"/><use transform="matrix(0.05,0,0,0.05,38.45,0)" xlink:href="#av"/><use transform="matrix(0.05,0,0,0.05,43.45,0)" xlink:href="#aS"/><use transform="matrix(0.05,0,0,0.05,55.45,0)" xlink:href="#aA"/><use transform="matrix(0.05,0,0,0.05,65.45,0)" xlink:href="#Z"/><use transform="matrix(0.05,0,0,0.05,75.45,0)" xlink:href="#ac"/><use transform="matrix(0.05,0,0,0.05,79.4,0)" xlink:href="#ac"/><use transform="matrix(0.05,0,0,0.05,83.35000000000001,0)" xlink:href="#bg"/></g><g id="U"><use transform="matrix(0.05,0,0,0.05,0,0)" xlink:href="#aS"/><use transform="matrix(0.05,0,0,0.05,12,0)" xlink:href="#aA"/><use transform="matrix(0.05,0,0,0.05,22,0)" xlink:href="#Z"/><use transform="matrix(0.05,0,0,0.05,32,0)" xlink:href="#ac"/><use transform="matrix(0.05,0,0,0.05,35.95,0)" xlink:href="#ac"/></g></defs></g></svg>